<?xml version="1.0" encoding="UTF-8"?>
<svg version="1.1" xmlns="http://www.w3.org/2000/svg" width="500" height="500">
<path d="M0 0 C165 0 330 0 500 0 C500 165 500 330 500 500 C335 500 170 500 0 500 C0 335 0 170 0 0 Z " fill="#AFE596" transform="translate(0,0)"/>
<path d="M0 0 C2.34853801 1.08186012 3.93618789 2.40054561 6 4 C9.28642465 3.87134188 9.28642465 3.87134188 12 3 C12.33 2.01 12.66 1.02 13 0 C21.38745446 -0.58336237 28.36083135 -0.7034469 35 5 C37.19759962 8.32969639 38 10.03378957 38 14 C39.02738281 13.95359375 40.05476562 13.9071875 41.11328125 13.859375 C49.53173061 13.5915893 57.5593097 13.44088612 65 18 C69.66722944 22.51165513 69.75229201 28.8444564 70 35 C74.31252529 36.05612864 76.98621396 36.35967966 80.8125 34.125 C81.864375 33.42375 82.91625 32.7225 84 32 C88.12148815 29.93925592 92.67822358 30.69314683 96.9375 32.0625 C103.25642252 34.65645458 109.23166964 39.69435862 112 46 C113.55869902 51.45836547 114.41692444 56.45278172 114.4375 62.125 C114.44221313 63.21772217 114.44221313 63.21772217 114.44702148 64.33251953 C114.2831775 71.90556958 111.98396196 78.09286183 109 85 C107.85922343 88.42232972 107.90184883 91.08673217 107.9375 94.6875 C107.94652344 95.86699219 107.95554687 97.04648438 107.96484375 98.26171875 C107.97644531 99.16535156 107.98804688 100.06898438 108 101 C108.66 101 109.32 101 110 101 C113 104.46153846 113 104.46153846 113 107 C116.3 107.33 119.6 107.66 123 108 C122.07754868 111.68980529 121.2070508 113.50157456 119.125 116.5625 C118.61195313 117.32691406 118.09890625 118.09132813 117.5703125 118.87890625 C116.1517545 120.79501817 114.81079025 122.45142801 113 124 C112.34 124 111.68 124 111 124 C111 124.66 111 125.32 111 126 C105.7637976 128.23759625 100.77236126 130.08901661 95.1875 131.25 C92.02149428 132.04150143 90.439864 132.50168561 88.265625 134.96484375 C86.91805742 137.14179171 86.91805742 137.14179171 85.90234375 139.35546875 C85.60457031 139.89816406 85.30679688 140.44085938 85 141 C84.34 141 83.68 141 83 141 C83 141.66 83 142.32 83 143 C80.69 143.33 78.38 143.66 76 144 C75.97421875 144.56847656 75.9484375 145.13695312 75.921875 145.72265625 C75.40609635 152.74427924 73.81098153 157.33317137 68.5625 162.3125 C63.66251415 165.53931995 60.28179762 166.15632428 54.4375 165.75 C50.05782458 165.47132609 50.05782458 165.47132609 46.3359375 167.328125 C45.15851378 169.16615337 45.15851378 169.16615337 44 172 C43.34 172 42.68 172 42 172 C42 172.66 42 173.32 42 174 C33.31675872 178.75510832 23.59663568 179.18657522 14 177 C14 176.34 14 175.68 14 175 C10.14961746 173.18805528 7.24813925 172.49022329 3 173 C0.55156525 174.17631322 -1.67567446 175.57957884 -4 177 C-11.11027077 179.3355983 -19.070355 178.46387378 -26 176 C-26 175.34 -26 174.68 -26 174 C-26.8971875 173.5978125 -26.8971875 173.5978125 -27.8125 173.1875 C-31.31088537 171.28837651 -32.73345454 169.79963639 -34 166 C-35.05058594 166.0928125 -36.10117188 166.185625 -37.18359375 166.28125 C-48.28049383 166.96175769 -48.28049383 166.96175769 -52.99609375 164.32421875 C-58.00013045 159.82962421 -61.14203198 156.15454696 -61.625 149.3125 C-61.69976562 148.31863281 -61.77453125 147.32476562 -61.8515625 146.30078125 C-61.90054688 145.54152344 -61.94953125 144.78226563 -62 144 C-63.36125 143.814375 -63.36125 143.814375 -64.75 143.625 C-67.58970323 143.07890323 -69.52590591 142.42736197 -72 141 C-72 140.34 -72 139.68 -72 139 C-72.66 139 -73.32 139 -74 139 C-75.4606285 136.35261084 -76 135.10551666 -76 132 C-76.73605469 131.96261719 -77.47210938 131.92523438 -78.23046875 131.88671875 C-87.56977488 131.25751847 -87.56977488 131.25751847 -92 128 C-93.175625 127.62875 -93.175625 127.62875 -94.375 127.25 C-98.31633371 125.37317443 -101.24559752 122.36560995 -104 119 C-104 118.34 -104 117.68 -104 117 C-104.66 117 -105.32 117 -106 117 C-106 116.01 -106 115.02 -106 114 C-106.66 114 -107.32 114 -108 114 C-108.33 111.69 -108.66 109.38 -109 107 C-103.555 106.505 -103.555 106.505 -98 106 C-97.566875 104.63875 -97.566875 104.63875 -97.125 103.25 C-96 100 -96 100 -94.875 98.0625 C-92.26677252 91.91453522 -94.74690324 85.84173956 -97 80 C-97.27457031 79.37480469 -97.54914063 78.74960938 -97.83203125 78.10546875 C-101.81052571 68.7961837 -102.19632261 57.60356291 -99 48 C-95.38047768 40.80577917 -90.71031431 35.9925762 -83.625 32.1875 C-78.22859658 30.41971267 -74.1319068 30.09803943 -68.75 32.375 C-67.17194045 33.30748973 -65.60274543 34.25629327 -64.0625 35.25 C-60.91224832 36.39554607 -58.22673865 35.62052666 -55 35 C-55.05800781 34.20335937 -55.11601562 33.40671875 -55.17578125 32.5859375 C-55.59074406 22.84023944 -55.59074406 22.84023944 -53.0625 19.4375 C-44.42703696 12.56437636 -34.49226755 13.67475175 -24 14 C-23.87109375 12.89140625 -23.7421875 11.7828125 -23.609375 10.640625 C-22.77107625 5.63232732 -20.76887187 4.2679524 -16.79296875 1.41796875 C-11.56736959 -1.23502774 -5.7107735 -0.64574117 0 0 Z " fill="#D3C5B9" transform="translate(243,83)"/>
<path d="M0 0 C2 2 2 2 2 5 C3.32 5.33 4.64 5.66 6 6 C6 6.66 6 7.32 6 8 C6.721875 8.28875 7.44375 8.5775 8.1875 8.875 C11 10 11 10 13.05859375 11.05078125 C17.33192658 12.42982491 21.41260754 12.32883379 25.875 12.3125 C26.74769531 12.32861328 27.62039062 12.34472656 28.51953125 12.36132812 C36.1222807 12.36704448 41.31420274 10.6808575 47.3125 5.8125 C50.79562044 3 50.79562044 3 53 3 C53 2.34 53 1.68 53 1 C55.95664519 -0.4783226 58.74229737 -0.06032783 62 0 C62 0.66 62 1.32 62 2 C62.99 2.33 63.98 2.66 65 3 C65 3.66 65 4.32 65 5 C65.556875 5.226875 66.11375 5.45375 66.6875 5.6875 C69.6469509 7.36718835 71.66126784 9.54133285 74 12 C74.47308594 12.41378906 74.94617188 12.82757813 75.43359375 13.25390625 C86.49163681 25.580453 87.4503006 42.2980416 87.16113281 57.88452148 C86.99827654 60.02262698 86.58157811 61.93971001 86 64 C85.34 64 84.68 64 84 64 C83.34 66.97 82.68 69.94 82 73 C81.34 73 80.68 73 80 73 C80 73.66 80 74.32 80 75 C79.34 75 78.68 75 78 75 C78 76.32 78 77.64 78 79 C75.6875 81.0625 75.6875 81.0625 73 83 C72.484375 83.556875 71.96875 84.11375 71.4375 84.6875 C69.69878222 86.27502493 68.29273506 86.60470085 66 87 C66 87.66 66 88.32 66 89 C64.42524636 89.66648038 62.83937755 90.30668772 61.25 90.9375 C60.36828125 91.29714844 59.4865625 91.65679687 58.578125 92.02734375 C39.90183161 97.10419643 10.20904398 97.66904584 -7.5625 89 C-9.2640625 88.01 -9.2640625 88.01 -11 87 C-12.216875 86.525625 -13.43375 86.05125 -14.6875 85.5625 C-18.29713599 83.85984151 -20.43249953 82.03431874 -23 79 C-23 78.34 -23 77.68 -23 77 C-23.66 77 -24.32 77 -25 77 C-25 76.34 -25 75.68 -25 75 C-25.66 75 -26.32 75 -27 75 C-34.86979872 56.97756018 -36.05341266 42.69712525 -28.8671875 24.0625 C-28.43792969 23.0415625 -28.43792969 23.0415625 -28 22 C-27.34 22 -26.68 22 -26 22 C-25.74476563 21.27683594 -25.48953125 20.55367187 -25.2265625 19.80859375 C-21.80662779 11.97759676 -15.28068004 5.37486539 -8 1 C-5.03104944 0.01034981 -3.0913386 -0.23779528 0 0 Z " fill="#FDFAFB" transform="translate(223,135)"/>
<path d="M0 0 C3.06426892 2.01963179 4.84876129 3.66814368 6.75 6.8125 C7.39819613 10.70167677 7.0910429 12.26439534 5 15.625 C2.69162817 17.86925039 1.77670903 18.22114718 -1.25 18.8125 C1.63996348 22.8502504 4.47700429 26.67507542 8.125 30.0625 C10.75 32.8125 10.75 32.8125 10.75 36.8125 C4.93809621 35.22743533 0.64390433 30.86078411 -2.48046875 25.83203125 C-2.81691406 25.20683594 -3.15335937 24.58164062 -3.5 23.9375 C-4.94121002 20.54141781 -4.94121002 20.54141781 -8.25 19.8125 C-8.22679687 20.46476562 -8.20359375 21.11703125 -8.1796875 21.7890625 C-8.07484602 26.8663858 -8.124842 31.08992668 -10.25 35.8125 C-13.18146333 38.74396333 -15.73440746 38.10411443 -19.74414062 38.13476562 C-20.71544922 38.13154297 -21.68675781 38.12832031 -22.6875 38.125 C-23.65494141 38.14111328 -24.62238281 38.15722656 -25.61914062 38.17382812 C-26.54791016 38.17447266 -27.47667969 38.17511719 -28.43359375 38.17578125 C-29.28493896 38.17876221 -30.13628418 38.18174316 -31.01342773 38.18481445 C-33.69243735 37.73884898 -34.56622346 36.88713487 -36.25 34.8125 C-36.93964844 35.29976563 -37.62929688 35.78703125 -38.33984375 36.2890625 C-41.75487841 38.07679876 -43.9791866 38.21415108 -47.8125 38.1875 C-48.92753906 38.19523437 -50.04257812 38.20296875 -51.19140625 38.2109375 C-54.47845597 37.78273945 -55.84855171 37.03193143 -58.25 34.8125 C-58.91 35.8025 -59.57 36.7925 -60.25 37.8125 C-64.42383014 38.72270657 -68.20098826 38.33700587 -72 36.4375 C-76.46385727 31.22966651 -80.17586153 24.94108838 -79.67578125 17.8828125 C-78.29779922 11.18253288 -75.27891662 5.28031541 -71.25 -0.1875 C-66.30186827 -0.06891732 -63.1574357 0.09025526 -59.1875 3.25 C-57.25 5.8125 -57.25 5.8125 -57.25 7.8125 C-56.59 7.8125 -55.93 7.8125 -55.25 7.8125 C-55.229375 7.235 -55.20875 6.6575 -55.1875 6.0625 C-53.96442916 3.12712999 -52.13124866 2.02410644 -49.36328125 0.57421875 C-45.76756879 -0.72183288 -41.98949593 -1.03288503 -38.25 -0.1875 C-37.59 0.8025 -36.93 1.7925 -36.25 2.8125 C-37.09304688 3.07804687 -37.93609375 3.34359375 -38.8046875 3.6171875 C-39.90039062 3.97039062 -40.99609375 4.32359375 -42.125 4.6875 C-43.21554687 5.03554688 -44.30609375 5.38359375 -45.4296875 5.7421875 C-48.33522723 6.62425231 -48.33522723 6.62425231 -50.25 8.8125 C-50.34839799 10.82893172 -50.34839799 10.82893172 -49.25 12.8125 C-46.75689317 14.57431892 -46.75689317 14.57431892 -43.75 16 C-38.27624672 18.78625328 -38.27624672 18.78625328 -37.25 19.8125 C-37.20101562 18.84828125 -37.15203125 17.8840625 -37.1015625 16.890625 C-37.02679688 15.62734375 -36.95203125 14.3640625 -36.875 13.0625 C-36.80539062 11.80953125 -36.73578125 10.5565625 -36.6640625 9.265625 C-36.29676696 6.20251879 -35.85288714 4.39275734 -34.25 1.8125 C-31.4579699 1.9529983 -28.66650204 2.09965383 -25.875 2.25 C-25.0809375 2.28931641 -24.286875 2.32863281 -23.46875 2.36914062 C-17.4765625 2.69921875 -17.4765625 2.69921875 -15.25 3.8125 C-15.146875 3.173125 -15.04375 2.53375 -14.9375 1.875 C-14.710625 1.194375 -14.48375 0.51375 -14.25 -0.1875 C-9.22141801 -1.863694 -4.90969589 -1.79392735 0 0 Z " fill="#A78A74" transform="translate(390.25,296.1875)"/>
<path d="M0 0 C5.4325097 2.94347009 10.54780389 7.40315746 13.0546875 13.11328125 C14.61338652 18.57164672 15.47161194 23.56606297 15.4921875 29.23828125 C15.49690063 30.33100342 15.49690063 30.33100342 15.50170898 31.44580078 C15.337865 39.01885083 13.03864946 45.20614308 10.0546875 52.11328125 C8.91391093 55.53561097 8.95653633 58.20001342 8.9921875 61.80078125 C9.00121094 62.98027344 9.01023437 64.15976563 9.01953125 65.375 C9.03113281 66.27863281 9.04273438 67.18226563 9.0546875 68.11328125 C9.7146875 68.11328125 10.3746875 68.11328125 11.0546875 68.11328125 C14.0546875 71.57481971 14.0546875 71.57481971 14.0546875 74.11328125 C17.3546875 74.44328125 20.6546875 74.77328125 24.0546875 75.11328125 C23.13223618 78.80308654 22.2617383 80.61485581 20.1796875 83.67578125 C19.66664063 84.44019531 19.15359375 85.20460938 18.625 85.9921875 C17.206442 87.90829942 15.86547775 89.56470926 14.0546875 91.11328125 C13.3946875 91.11328125 12.7346875 91.11328125 12.0546875 91.11328125 C12.0546875 91.77328125 12.0546875 92.43328125 12.0546875 93.11328125 C5.36351839 96.1741352 -0.58436068 97.80004926 -7.9453125 98.11328125 C-7.94789063 97.26765625 -7.95046875 96.42203125 -7.953125 95.55078125 C-8.1958399 88.43114417 -8.8033889 83.9468773 -13.66796875 78.6015625 C-14.9453125 77.11328125 -14.9453125 77.11328125 -14.9453125 75.11328125 C-14.2853125 75.11328125 -13.6253125 75.11328125 -12.9453125 75.11328125 C-12.5740625 74.15421875 -12.5740625 74.15421875 -12.1953125 73.17578125 C-10.25836397 68.43025736 -8.23819609 63.69904844 -5.9453125 59.11328125 C-5.02731031 51.03688219 -5.02731031 51.03688219 -8.3828125 44.05078125 C-9.65125 43.09171875 -9.65125 43.09171875 -10.9453125 42.11328125 C-11.4403125 40.62828125 -11.4403125 40.62828125 -11.9453125 39.11328125 C-13.96039608 38.38004329 -13.96039608 38.38004329 -15.9453125 38.11328125 C-15.39807567 34.7386541 -14.8904125 33.03093125 -12.9453125 30.11328125 C-12.58757126 26.65719195 -12.58757126 26.65719195 -12.6328125 22.80078125 C-12.61605469 21.50527344 -12.59929687 20.20976562 -12.58203125 18.875 C-12.96872852 14.87081213 -13.81290031 12.50034526 -15.9453125 9.11328125 C-18.99328623 6.74626066 -18.99328623 6.74626066 -21.9453125 5.11328125 C-20.80102933 1.68043173 -20.39790353 1.47645935 -17.3203125 -0.07421875 C-11.29681835 -2.86088864 -6.04577066 -2.48182414 0 0 Z " fill="#DBA53B" transform="translate(341.9453125,115.88671875)"/>
<path d="M0 0 C2.65868909 1.77245939 3.59886916 2.77422056 4.625 5.75 C2.8671875 6.85677083 1.109375 7.96354167 -0.6484375 9.0703125 C-3.79172907 12.12826584 -4.2833697 15.75872675 -4.67578125 20.00390625 C-4.67964844 21.09574219 -4.68351562 22.18757813 -4.6875 23.3125 C-4.70425781 24.40691406 -4.72101563 25.50132812 -4.73828125 26.62890625 C-4.33559374 30.08855482 -3.31164183 31.89966048 -1.375 34.75 C-0.6875 37.0625 -0.6875 37.0625 -0.375 38.75 C-2.355 39.245 -2.355 39.245 -4.375 39.75 C-4.375 40.41 -4.375 41.07 -4.375 41.75 C-4.99375 42.018125 -5.6125 42.28625 -6.25 42.5625 C-8.6745233 43.70556848 -8.6745233 43.70556848 -10.375 46.75 C-10.59716068 49.42169858 -10.69952645 51.95512871 -10.6875 54.625 C-10.70361328 55.33269531 -10.71972656 56.04039062 -10.73632812 56.76953125 C-10.74058667 61.34320449 -9.98012464 64.02446556 -7.375 67.75 C-7.375 68.41 -7.375 69.07 -7.375 69.75 C-6.715 69.75 -6.055 69.75 -5.375 69.75 C-3.34012846 72.38779645 -2.33547023 73.93963973 -2.5 77.3125 C-3.43470364 79.91631728 -4.65627222 81.60159028 -6.375 83.75 C-7.37759507 86.75778521 -7.67814642 89.28820647 -7.9375 92.4375 C-8.02128906 93.43136719 -8.10507813 94.42523438 -8.19140625 95.44921875 C-8.25199219 96.20847656 -8.31257813 96.96773438 -8.375 97.75 C-17.31295509 98.28627731 -23.5028907 97.93274776 -30.41796875 91.99609375 C-32.18462858 90.3070118 -33.86184823 88.6698113 -35.375 86.75 C-35.375 86.09 -35.375 85.43 -35.375 84.75 C-36.035 84.75 -36.695 84.75 -37.375 84.75 C-37.375 83.76 -37.375 82.77 -37.375 81.75 C-38.035 81.75 -38.695 81.75 -39.375 81.75 C-39.705 79.44 -40.035 77.13 -40.375 74.75 C-34.93 74.255 -34.93 74.255 -29.375 73.75 C-28.941875 72.38875 -28.941875 72.38875 -28.5 71 C-27.375 67.75 -27.375 67.75 -26.25 65.8125 C-23.64177252 59.66453522 -26.12190324 53.59173956 -28.375 47.75 C-28.64957031 47.12480469 -28.92414063 46.49960938 -29.20703125 45.85546875 C-33.18552571 36.5461837 -33.57132261 25.35356291 -30.375 15.75 C-26.75547768 8.55577917 -22.08531431 3.7425762 -15 -0.0625 C-9.5579302 -1.845247 -5.4978465 -2.03623944 0 0 Z " fill="#DBA53A" transform="translate(174.375,115.25)"/>
<path d="M0 0 C2.32421875 0.3671875 2.32421875 0.3671875 5 2 C6.40919956 5.26184808 7.08494582 8.65659419 7.8125 12.125 C8.02841797 13.06988281 8.24433594 14.01476562 8.46679688 14.98828125 C8.99716886 17.32191799 9.50723644 19.65818476 10 22 C10.32613281 21.21496094 10.65226562 20.42992187 10.98828125 19.62109375 C11.88867391 17.45643294 12.7938001 15.29373628 13.703125 13.1328125 C14.45075496 11.32679074 15.18049624 9.51266016 15.859375 7.6796875 C17.54010245 3.21642238 17.54010245 3.21642238 20.125 2 C20.74375 2 21.3625 2 22 2 C24.05922402 4.05922402 23.41427579 8.21708124 23.5625 11.0625 C23.60568359 11.82111328 23.64886719 12.57972656 23.69335938 13.36132812 C23.79973633 15.24065438 23.90039934 17.12030244 24 19 C27.01004878 15.98995122 27.76217476 11.97151535 28.96875 7.96679688 C29.5859375 6.08984375 29.5859375 6.08984375 31 3 C33.1640625 2.06640625 33.1640625 2.06640625 35 2 C38.38827806 5.76396579 39.84422767 8.9315735 41.125 13.8125 C41.61613281 15.65134766 41.61613281 15.65134766 42.1171875 17.52734375 C42.40851563 18.67332031 42.69984375 19.81929688 43 21 C43.34417969 22.33224609 43.34417969 22.33224609 43.6953125 23.69140625 C44.14394572 25.45750462 44.57475021 27.22812589 45 29 C46.20280161 27.42825925 47.38681275 25.84212442 48.5625 24.25 C49.22378906 23.36828125 49.88507813 22.4865625 50.56640625 21.578125 C52.18573481 19.1983353 52.18573481 19.1983353 51.90625 16.9921875 C50.7649369 14.48326646 49.40907452 12.20586272 47.9375 9.875 C45 5.21647059 45 5.21647059 45 3 C47.86493176 3.0842627 49.53415293 3.5260006 51.5625 5.58984375 C52.58803821 6.84356422 53.59171352 8.11555729 54.5703125 9.40625 C56.0134095 11.27948102 56.0134095 11.27948102 59 12 C59.226875 11.46375 59.45375 10.9275 59.6875 10.375 C61.48477111 7.12279514 63.4219781 4.70078485 66 2 C67.32 2 68.64 2 70 2 C69.27156064 7.22205881 66.82851061 10.8670439 64.08203125 15.28125 C62.72825634 17.9231669 62.72825634 17.9231669 63.59765625 20.49609375 C65.70990268 24.26754211 68.11079186 27.80587945 70.5390625 31.37890625 C72 34 72 34 72 38 C68.26365925 37.45102011 66.85438524 36.07162192 64.5 33.1875 C62.09108278 30.26942527 59.70029098 27.70029098 57 25 C53.7 29.62 50.4 34.24 47 39 C42 37 42 37 40.63671875 34.3984375 C40.32347656 33.40070313 40.01023438 32.40296875 39.6875 31.375 C39.19830078 29.87066406 39.19830078 29.87066406 38.69921875 28.3359375 C38.35310547 27.17964844 38.35310547 27.17964844 38 26 C35.36 25.67 32.72 25.34 30 25 C29.82984375 25.59167969 29.6596875 26.18335938 29.484375 26.79296875 C27.99889662 31.63657645 26.53140647 35.22504826 23 39 C21.515 38.505 21.515 38.505 20 38 C18.71865793 31.34448534 17.66355044 24.74609618 17 18 C16.49339844 19.69769531 16.49339844 19.69769531 15.9765625 21.4296875 C15.52637362 22.91155922 15.07583457 24.39332459 14.625 25.875 C14.40328125 26.62136719 14.1815625 27.36773437 13.953125 28.13671875 C12.2265625 33.7734375 12.2265625 33.7734375 10 36 C6.90407165 32.4912812 5.25805377 29.50802601 4 25 C3.87882812 25.67546875 3.75765625 26.3509375 3.6328125 27.046875 C3.46523437 27.93890625 3.29765625 28.8309375 3.125 29.75 C2.96257812 30.63171875 2.80015625 31.5134375 2.6328125 32.421875 C2.03203736 34.86947744 1.22002883 36.80599857 0 39 C-2.55136636 36.87448901 -3.88798361 35.7408767 -4.39404297 32.39379883 C-4.34393066 31.42466553 -4.29381836 30.45553223 -4.2421875 29.45703125 C-4.19320312 28.38259766 -4.14421875 27.30816406 -4.09375 26.20117188 C-3.98546875 24.5237793 -3.98546875 24.5237793 -3.875 22.8125 C-3.82601562 21.71357422 -3.77703125 20.61464844 -3.7265625 19.48242188 C-2.85399131 2.85399131 -2.85399131 2.85399131 0 0 Z " fill="#A78973" transform="translate(103,295)"/>
<path d="M0 0 C3.06426892 2.01963179 4.84876129 3.66814368 6.75 6.8125 C7.39819613 10.70167677 7.0910429 12.26439534 5 15.625 C2.69162817 17.86925039 1.77670903 18.22114718 -1.25 18.8125 C1.63996348 22.8502504 4.47700429 26.67507542 8.125 30.0625 C10.75 32.8125 10.75 32.8125 10.75 36.8125 C4.93809621 35.22743533 0.64390433 30.86078411 -2.48046875 25.83203125 C-2.81691406 25.20683594 -3.15335937 24.58164062 -3.5 23.9375 C-4.94121002 20.54141781 -4.94121002 20.54141781 -8.25 19.8125 C-8.229375 20.988125 -8.20875 22.16375 -8.1875 23.375 C-8.22354502 33.53969583 -8.22354502 33.53969583 -10.8125 36.75 C-11.286875 37.100625 -11.76125 37.45125 -12.25 37.8125 C-13.24 36.1625 -14.23 34.5125 -15.25 32.8125 C-15.79527344 33.0290625 -16.34054687 33.245625 -16.90234375 33.46875 C-22.22128616 35.4326672 -27.56418558 36.9770644 -33.25 35.8125 C-34.99609375 34.67578125 -34.99609375 34.67578125 -36.25 32.8125 C-36.54296875 29.89453125 -36.54296875 29.89453125 -36.4375 26.625 C-36.41042969 25.53832031 -36.38335937 24.45164062 -36.35546875 23.33203125 C-36.32066406 22.50058594 -36.28585937 21.66914063 -36.25 20.8125 C-36.91 21.1425 -37.57 21.4725 -38.25 21.8125 C-40.88760152 21.93713392 -43.4872717 21.99766573 -46.125 22 C-46.84558594 22.01224609 -47.56617188 22.02449219 -48.30859375 22.03710938 C-52.11487912 22.04762398 -55.02513112 21.94834248 -58.25 19.8125 C-58.25 18.8225 -58.25 17.8325 -58.25 16.8125 C-54.70865331 15.6320511 -51.49554786 15.66631276 -47.8125 15.6875 C-46.49378906 15.68492187 -45.17507813 15.68234375 -43.81640625 15.6796875 C-41.04761546 15.7827969 -38.85922886 15.97167433 -36.25 16.8125 C-36.18941406 15.98105469 -36.12882812 15.14960938 -36.06640625 14.29296875 C-35.98261719 13.20628906 -35.89882813 12.11960937 -35.8125 11 C-35.73128906 9.92105469 -35.65007812 8.84210938 -35.56640625 7.73046875 C-35.25 4.8125 -35.25 4.8125 -34.25 1.8125 C-28.18233264 1.59274545 -22.97184417 1.66680844 -17.25 3.8125 C-16.59 4.4725 -15.93 5.1325 -15.25 5.8125 C-15.25 4.1625 -15.25 2.5125 -15.25 0.8125 C-10.45282523 -2.38561651 -5.15445518 -1.88335862 0 0 Z " fill="#A78B74" transform="translate(303.25,296.1875)"/>
<path d="M0 0 C1.65 0 3.3 0 5 0 C7.48360441 3.72540662 7.2315867 5.63062973 7.1953125 10.07421875 C7.1924826 10.7580513 7.18965271 11.44188385 7.18673706 12.1464386 C7.17555684 14.32697165 7.15045691 16.50709145 7.125 18.6875 C7.11496738 20.16731177 7.10584202 21.64712999 7.09765625 23.12695312 C7.07562481 26.751436 7.04111002 30.37567766 7 34 C8.19238281 33.98839844 9.38476562 33.97679687 10.61328125 33.96484375 C12.17968594 33.95546408 13.74609231 33.94636407 15.3125 33.9375 C16.09818359 33.92912109 16.88386719 33.92074219 17.69335938 33.91210938 C18.45068359 33.90888672 19.20800781 33.90566406 19.98828125 33.90234375 C20.68477783 33.89710693 21.38127441 33.89187012 22.09887695 33.88647461 C24 34 24 34 27 35 C27 36.32 27 37.64 27 39 C22.89300106 40.36899965 19.05199052 40.22388777 14.75 40.25 C13.91597656 40.270625 13.08195312 40.29125 12.22265625 40.3125 C6.73703628 40.34694659 2.75075492 39.85291768 -2 37 C-3.33984375 34.51953125 -3.33984375 34.51953125 -3.9375 31.8125 C-4.15277344 30.91144531 -4.36804688 30.01039063 -4.58984375 29.08203125 C-4.72519531 28.39496094 -4.86054688 27.70789063 -5 27 C-7.97 27 -10.94 27 -14 27 C-14.24234375 27.63808594 -14.4846875 28.27617187 -14.734375 28.93359375 C-15.23710937 30.17302734 -15.23710937 30.17302734 -15.75 31.4375 C-16.07484375 32.26121094 -16.3996875 33.08492188 -16.734375 33.93359375 C-18 36 -18 36 -20.140625 36.78515625 C-20.75421875 36.85605469 -21.3678125 36.92695313 -22 37 C-23.45826272 33.15469662 -22.4963795 30.65124343 -21.19921875 26.84375 C-20.79896484 25.65652344 -20.39871094 24.46929687 -19.98632812 23.24609375 C-19.55771484 22.00988281 -19.12910156 20.77367187 -18.6875 19.5 C-18.27048828 18.26378906 -17.85347656 17.02757812 -17.42382812 15.75390625 C-14.04682046 5.83293636 -14.04682046 5.83293636 -12 2 C-9.6875 2.1875 -9.6875 2.1875 -7 3 C-3.57772746 7.05602672 -2.98560594 11.92033862 -2 17 C-1.34 11.39 -0.68 5.78 0 0 Z " fill="#A78A74" transform="translate(219,295)"/>
<path d="M0 0 C1.953125 0.109375 1.953125 0.109375 4 1 C8.89677158 7.03076079 9.5249947 13.60320014 9.37109375 21.1171875 C9.01138893 23.91152601 8.53214615 25.65543471 7 28 C3.9167365 29.54163175 1.39121901 29.29747535 -2 29 C-4.71408282 26.55420583 -4.99792664 25.01896514 -5.3984375 21.35546875 C-5.40636893 19.96614651 -5.39808842 18.57665303 -5.375 17.1875 C-5.38660156 16.50107422 -5.39820313 15.81464844 -5.41015625 15.10742188 C-5.37721523 9.30431233 -4.2429464 4.2429464 0 0 Z " fill="#AFE395" transform="translate(322,299)"/>
<path d="M0 0 C10.54987634 6.77081616 10.54987634 6.77081616 14 11 C14 12.32 14 13.64 14 15 C7.75306537 17.6772577 5.41020486 18 -2 18 C-1.34 12.06 -0.68 6.12 0 0 Z " fill="#AFE295" transform="translate(336,310)"/>
<path d="M0 0 C2.4375 0.1875 2.4375 0.1875 5 1 C5.309375 1.66 5.61875 2.32 5.9375 3 C6.288125 3.66 6.63875 4.32 7 5 C10.05908413 5.81584568 10.05908413 5.81584568 13 6 C13.226875 5.195625 13.45375 4.39125 13.6875 3.5625 C14.120625 2.716875 14.55375 1.87125 15 1 C17.625 0.1875 17.625 0.1875 20 0 C20.75 2.125 20.75 2.125 21 5 C17.90666667 10.54666667 17.90666667 10.54666667 15 12 C12.7578125 12.203125 12.7578125 12.203125 10.125 12.25 C8.82949219 12.28867188 8.82949219 12.28867188 7.5078125 12.328125 C4.51774897 11.93690173 3.16120725 11.07073811 1 9 C1 8.34 1 7.68 1 7 C0.34 7 -0.32 7 -1 7 C-1.04254356 5.00045254 -1.04080783 2.99958364 -1 1 C-0.67 0.67 -0.34 0.34 0 0 Z " fill="#E07875" transform="translate(241,208)"/>
<path d="M0 0 C0 3.96 0 7.92 0 12 C-5.28 11.67 -10.56 11.34 -16 11 C-16 7.7 -16 4.4 -16 1 C-13.89594609 0.83191581 -11.79175242 0.66558052 -9.6875 0.5 C-8.51574219 0.4071875 -7.34398437 0.314375 -6.13671875 0.21875 C-4.094806 0.07635011 -2.0468721 0 0 0 Z " fill="#AFE496" transform="translate(376,317)"/>
<path d="M0 0 C0 3.63 0 7.26 0 11 C-4.95 11 -9.9 11 -15 11 C-15 7.7 -15 4.4 -15 1 C-13.25021843 0.83105557 -11.50016388 0.66493691 -9.75 0.5 C-8.77546875 0.4071875 -7.8009375 0.314375 -6.796875 0.21875 C-4.53697847 0.04199832 -2.26679807 0 0 0 Z " fill="#AFE496" transform="translate(375,303)"/>
<path d="M0 0 C1.10085937 -0.01417969 2.20171875 -0.02835937 3.3359375 -0.04296875 C6.73975276 0.19554087 9.44916186 0.97377334 12.625 2.1875 C12.625 3.1775 12.625 4.1675 12.625 5.1875 C8.80856718 6.40447475 5.10769899 6.3554001 1.125 6.375 C-0.1846875 6.38917969 -1.494375 6.40335937 -2.84375 6.41796875 C-6.04608832 6.20896658 -7.72658038 5.89681164 -10.375 4.1875 C-10.375 3.1975 -10.375 2.2075 -10.375 1.1875 C-6.8895007 0.12484777 -3.63345793 0.021174 0 0 Z " fill="#A78F75" transform="translate(184.375,311.8125)"/>
<path d="M0 0 C2.27334731 2.65223853 3.01905356 4.18069706 2.9375 7.6875 C2 10 2 10 0.3125 11.375 C-2.7634633 12.20634143 -4.94432589 11.81484643 -8 11 C-9.41441874 8.17116253 -9.31900332 6.12623255 -9 3 C-6.34331586 0.04812874 -3.90140369 -0.80028794 0 0 Z " fill="#26242B" transform="translate(228,168)"/>
<path d="M0 0 C3.81317524 0.04792141 3.81317524 0.04792141 6.1875 2.0625 C7.125 4.3125 7.125 4.3125 7.1875 6.375 C5.52034666 9.41510315 3.29215626 10.09436298 0.125 11.3125 C-1.54097101 11.36064945 -3.2092966 11.36915658 -4.875 11.3125 C-4.90188151 9.66675434 -4.92134123 8.02088587 -4.9375 6.375 C-4.94910156 5.45847656 -4.96070313 4.54195313 -4.97265625 3.59765625 C-4.80655125 -0.28920074 -4.09691629 0.33039647 0 0 Z " fill="#AFE295" transform="translate(278.875,315.6875)"/>
<path d="M0 0 C0.66 0.66 1.32 1.32 2 2 C1.54545455 7.45454545 1.54545455 7.45454545 -1 10 C-5.05261287 10.34490322 -6.54754176 10.30163882 -10 8 C-10.39907251 4.87393202 -10.46880951 2.85488793 -8.9375 0.0625 C-5.81651045 -1.6490104 -3.35466116 -0.79291991 0 0 Z " fill="#242229" transform="translate(279,170)"/>
<path d="M0 0 C6.0546875 -0.1953125 6.0546875 -0.1953125 8 0 C10 2 10 2 10.4375 4.875 C10 8 10 8 7.8125 10.375 C5 12 5 12 0 12 C0 8.04 0 4.08 0 0 Z " fill="#AFE396" transform="translate(381,300)"/>
<path d="M0 0 C6.0546875 -0.1953125 6.0546875 -0.1953125 8 0 C10 2 10 2 10.4375 4.875 C10 8 10 8 7.8125 10.375 C5 12 5 12 0 12 C0 8.04 0 4.08 0 0 Z " fill="#AFE396" transform="translate(294,300)"/>
<path d="M0 0 C3.375 -0.125 3.375 -0.125 7 0 C7.66 0.66 8.32 1.32 9 2 C8.7886938 4.57690492 8.32229438 5.69305297 6.44140625 7.484375 C5.82136719 7.90203125 5.20132812 8.3196875 4.5625 8.75 C3.94503906 9.17796875 3.32757813 9.6059375 2.69140625 10.046875 C1 11 1 11 -1 11 C-1.0270043 9.54176788 -1.04639787 8.08339325 -1.0625 6.625 C-1.07410156 5.81289063 -1.08570313 5.00078125 -1.09765625 4.1640625 C-1 2 -1 2 0 0 Z " fill="#AFDF93" transform="translate(275,302)"/>
<path d="M0 0 C3.63 0 7.26 0 11 0 C11 4 11 4 9 6.25 C8.01 7.11625 8.01 7.11625 7 8 C6.01 7.67 5.02 7.34 4 7 C4 6.34 4 5.68 4 5 C2.68 4.34 1.36 3.68 0 3 C0 2.01 0 1.02 0 0 Z " fill="#EF988E" transform="translate(244,191)"/>
<path d="M0 0 C0.66 0.33 1.32 0.66 2 1 C-2.62 5.62 -7.24 10.24 -12 15 C-12 10.39852874 -9.10228152 8.19311408 -6 5 C-4.05341967 3.24193983 -2.06456557 1.62215867 0 0 Z " fill="#F5F2F0" transform="translate(213,137)"/>
<path d="M0 0 C0.66 0.33 1.32 0.66 2 1 C2 3.31 2 5.62 2 8 C0.35 8 -1.3 8 -3 8 C-1.125 1.125 -1.125 1.125 0 0 Z " fill="#AED791" transform="translate(138,309)"/>
<path d="M0 0 C0.66 0.33 1.32 0.66 2 1 C2 2.98 2 4.96 2 7 C0.68 7 -0.64 7 -2 7 C-1.125 2.25 -1.125 2.25 0 0 Z " fill="#AFDF93" transform="translate(210,309)"/>
<path d="M0 0 C2.97 0 5.94 0 9 0 C9 0.33 9 0.66 9 1 C6.69 1.33 4.38 1.66 2 2 C2 3.65 2 5.3 2 7 C0.5393715 4.35261084 0 3.10551666 0 0 Z " fill="#C9BF5F" transform="translate(134,190)"/>
<path d="M0 0 C2.475 0.495 2.475 0.495 5 1 C4.67 2.65 4.34 4.3 4 6 C3.67 5.34 3.34 4.68 3 4 C2.34 4 1.68 4 1 4 C0.67 2.68 0.34 1.36 0 0 Z " fill="#E28482" transform="translate(257,208)"/>
<path d="M0 0 C1.67542976 0.28604898 3.34385343 0.61781233 5 1 C4.67 1.66 4.34 2.32 4 3 C3.01 3 2.02 3 1 3 C1 4.32 1 5.64 1 7 C0.34 7 -0.32 7 -1 7 C-1.04254356 5.00045254 -1.04080783 2.99958364 -1 1 C-0.67 0.67 -0.34 0.34 0 0 Z " fill="#E79896" transform="translate(241,208)"/>
<path d="M0 0 C0.33 0 0.66 0 1 0 C1 2.31 1 4.62 1 7 C-0.32 6.34 -1.64 5.68 -3 5 C-1.125 1.125 -1.125 1.125 0 0 Z " fill="#AFDF94" transform="translate(287,309)"/>
</svg>
